<?xml version="1.0" encoding="utf-8"?>
<!-- Generator: Adobe Illustrator 26.5.0, SVG Export Plug-In . SVG Version: 6.00 Build 0)  -->
<svg version="1.1" id="Layer_1" xmlns="http://www.w3.org/2000/svg" xmlns:xlink="http://www.w3.org/1999/xlink" x="0px" y="0px"
	 viewBox="0 0 154.5 167.7" width="154.5" height="167.7" style="enable-background:new 0 0 154.5 167.7;" xml:space="preserve">
<style type="text/css">
	.st0{fill:#16215E;}
	.st1{fill:#C98B1B;}
</style>
<path class="st0" d="M33.9,158.5h0.9v6.3h3.8v0.8h-4.7V158.5z"/>
<g>
	<g>
		<path class="st0" d="M43.6,164c-0.2,1.1-1.1,1.8-2.2,1.8c-1.6,0-2.4-1.1-2.5-2.7c-0.1-1.4,0.9-2.6,2.3-2.7c0.1,0,0.1,0,0.2,0
			c1.8,0,2.4,1.7,2.3,2.9h-3.8c-0.1,0.8,0.5,1.6,1.3,1.7c0.1,0,0.2,0,0.3,0c0.6,0.1,1.2-0.4,1.3-1L43.6,164z M42.8,162.5
			c0-0.8-0.7-1.5-1.5-1.5c-0.8,0-1.5,0.6-1.5,1.5H42.8z"/>
		<path class="st0" d="M49.1,165.6c-0.2,0.1-0.4,0.1-0.6,0.1c-0.4,0-0.7-0.2-0.7-0.8c-0.5,0.5-1.1,0.8-1.8,0.8
			c-0.9,0-1.7-0.4-1.7-1.4c0-1.2,0.9-1.4,1.7-1.6c0.9-0.2,1.7-0.1,1.7-0.8c0-0.7-0.6-0.9-1.1-0.9c-0.7,0-1.2,0.2-1.3,1h-0.8
			c0-1.3,1-1.7,2.2-1.7c0.9,0,1.9,0.2,1.9,1.4v2.6c0,0.4,0,0.6,0.3,0.6c0.1,0,0.2,0,0.3,0V165.6z M47.7,162.9
			c-0.5,0.2-1,0.3-1.5,0.3c-0.6,0.1-1,0.3-1,0.9c0,0.6,0.5,0.8,1,0.8c1.1,0,1.6-0.7,1.6-1.2L47.7,162.9z"/>
		<path class="st0" d="M54.4,165.6h-0.8v-0.7h0c-0.3,0.6-1,0.9-1.6,0.8c-1.3,0-2.4-1.1-2.4-2.4c0-0.1,0-0.2,0-0.3
			c-0.2-1.3,0.8-2.5,2.1-2.7c0.1,0,0.2,0,0.3,0c0.7,0,1.3,0.3,1.7,0.8h0v-2.6h0.8L54.4,165.6z M52.1,165c1.1,0,1.6-1,1.6-1.9
			c0-1-0.5-1.9-1.6-1.9s-1.5,1-1.5,2C50.5,164,51,165,52.1,165"/>
		<path class="st0" d="M56.6,159.5h-0.8v-1h0.8V159.5z M55.7,160.5h0.8v5.1h-0.8V160.5z"/>
		<path class="st0" d="M57.8,160.5h0.8v0.8h0c0.3-0.6,1-1,1.7-0.9c1.4,0,1.8,0.8,1.8,1.9v3.4h-0.8v-3.5c0-0.5-0.4-1-0.9-1
			c0,0-0.1,0-0.1,0c-0.8,0-1.5,0.6-1.5,1.4c0,0.1,0,0.2,0,0.3v2.9h-0.8V160.5z"/>
		<path class="st0" d="M67.8,165.2c0,1.7-0.8,2.5-2.4,2.5c-1,0-2.1-0.4-2.1-1.5h0.8c0,0.6,0.8,0.8,1.3,0.8c1.1,0,1.5-0.8,1.5-1.9
			v-0.3h0c-0.3,0.6-0.9,1-1.6,0.9c-1.3,0-2.3-1.1-2.3-2.3c0-0.1,0-0.2,0-0.3c-0.2-1.3,0.8-2.5,2.1-2.7c0.1,0,0.2,0,0.3,0
			c0.6,0,1.2,0.3,1.5,0.9h0v-0.7h0.8L67.8,165.2z M66.9,162.9c0-0.9-0.4-1.8-1.5-1.8c-1.1,0-1.5,0.9-1.5,1.9c0,0.9,0.3,2,1.5,2
			S66.9,163.9,66.9,162.9"/>
		<path class="st0" d="M74.8,158.3c2.3,0,3.4,1.8,3.4,3.7s-1.1,3.7-3.4,3.7c-2.3,0-3.4-1.8-3.4-3.7
			C71.4,160.1,72.6,158.3,74.8,158.3 M74.8,165c1.7,0,2.5-1.5,2.5-2.9c0-1.4-0.7-2.9-2.5-2.9s-2.5,1.5-2.5,2.9
			C72.4,163.5,73.1,165,74.8,165"/>
		<path class="st0" d="M83.5,165.6h-0.8v-0.8h0c-0.3,0.6-1,1-1.7,0.9c-1.4,0-1.8-0.8-1.8-1.9v-3.4h0.8v3.5c0,0.5,0.4,1,0.9,1
			c0,0,0.1,0,0.1,0c0.8,0,1.5-0.6,1.5-1.4c0-0.1,0-0.2,0-0.3v-2.9h0.8L83.5,165.6z"/>
		<path class="st0" d="M84.7,160.5h0.8v1.1h0c0.3-0.8,1.1-1.3,1.9-1.2v0.9c-1.4,0-1.9,0.8-1.9,2.1v2.3h-0.8L84.7,160.5z"/>
		<path class="st0" d="M93.8,158.3c2.3,0,3.4,1.8,3.4,3.7s-1.1,3.7-3.4,3.7s-3.4-1.8-3.4-3.7C90.4,160.1,91.6,158.3,93.8,158.3
			 M93.8,165c1.7,0,2.5-1.5,2.5-2.9c0-1.4-0.7-2.9-2.5-2.9s-2.5,1.5-2.5,2.9C91.4,163.5,92.1,165,93.8,165"/>
		<path class="st0" d="M103.3,165.6h-0.9l-1-4.1h0l-1,4.1h-0.9l-1.7-5.1h0.9l1.2,4.2h0l1-4.2h0.9l1.1,4.2h0l1.2-4.2h0.9L103.3,165.6
			z"/>
		<path class="st0" d="M105.7,160.5h0.8v0.8h0c0.3-0.6,1-1,1.7-0.9c1.4,0,1.8,0.8,1.8,1.9v3.4h-0.8v-3.5c0-0.5-0.4-1-0.9-1
			c0,0-0.1,0-0.1,0c-0.8,0-1.5,0.6-1.5,1.4c0,0.1,0,0.2,0,0.3v2.9h-0.8L105.7,160.5z"/>
		<path class="st0" d="M114,158.5h0.9v6.3h3.8v0.8H114V158.5z"/>
		<path class="st0" d="M123.7,164c-0.2,1.1-1.1,1.8-2.2,1.8c-1.6,0-2.4-1.1-2.5-2.7c-0.1-1.4,0.9-2.6,2.3-2.7c0.1,0,0.1,0,0.2,0
			c1.8,0,2.4,1.7,2.3,2.9H120c-0.1,0.8,0.5,1.6,1.3,1.7c0.1,0,0.2,0,0.3,0c0.6,0.1,1.2-0.4,1.3-1L123.7,164z M122.9,162.5
			c0-0.8-0.7-1.5-1.5-1.4c-0.8,0-1.4,0.7-1.4,1.4H122.9z"/>
		<path class="st0" d="M129.2,165.6c-0.2,0.1-0.4,0.1-0.6,0.1c-0.4,0-0.7-0.2-0.7-0.8c-0.5,0.5-1.1,0.8-1.8,0.8
			c-0.9,0-1.7-0.4-1.7-1.4c0-1.2,0.9-1.4,1.7-1.6c0.9-0.2,1.7-0.1,1.7-0.8c0-0.7-0.6-0.9-1.1-0.9c-0.7,0-1.2,0.2-1.3,1h-0.8
			c0.1-1.3,1-1.7,2.2-1.7c0.9,0,1.9,0.2,1.9,1.4v2.6c0,0.4,0,0.6,0.3,0.6c0.1,0,0.2,0,0.3,0V165.6z M127.8,162.9
			c-0.5,0.2-1,0.3-1.5,0.3c-0.6,0.1-1,0.3-1,0.9c0,0.6,0.5,0.8,1,0.8c1.1,0,1.6-0.7,1.6-1.2L127.8,162.9z"/>
		<path class="st0" d="M129.9,160.5h0.8v1.1h0c0.3-0.8,1.1-1.3,1.9-1.2v0.9c-1.4,0-1.9,0.8-1.9,2.1v2.3h-0.8L129.9,160.5z"/>
		<path class="st0" d="M133.4,160.5h0.8v0.8h0c0.3-0.6,1-1,1.7-0.9c1.4,0,1.8,0.8,1.8,1.9v3.4h-0.9v-3.5c0-0.5-0.4-1-0.9-1
			c0,0-0.1,0-0.1,0c-0.8,0-1.5,0.6-1.5,1.4c0,0.1,0,0.2,0,0.3v2.9h-0.8L133.4,160.5z"/>
		<path class="st0" d="M139.7,159.5h-0.8v-1h0.8L139.7,159.5z M138.9,160.5h0.8v5.1h-0.8L138.9,160.5z"/>
		<path class="st0" d="M141,160.5h0.8v0.8h0c0.3-0.6,1-1,1.7-0.9c1.4,0,1.8,0.8,1.8,1.9v3.4h-0.8v-3.5c0-0.5-0.4-1-0.9-1
			c0,0-0.1,0-0.1,0c-0.8,0-1.5,0.6-1.5,1.4c0,0.1,0,0.2,0,0.3v2.9H141L141,160.5z"/>
		<path class="st0" d="M150.9,165.2c0,1.7-0.8,2.5-2.4,2.5c-1,0-2.1-0.4-2.1-1.5h0.8c0,0.6,0.8,0.8,1.3,0.8c1.1,0,1.5-0.8,1.5-1.9
			v-0.3h0c-0.3,0.6-0.9,1-1.6,0.9c-1.3,0-2.3-1.1-2.3-2.3c0-0.1,0-0.2,0-0.3c-0.2-1.3,0.8-2.5,2.1-2.7c0.1,0,0.2,0,0.3,0
			c0.6,0,1.2,0.3,1.5,0.9h0v-0.7h0.8L150.9,165.2z M150.1,162.9c0-0.9-0.4-1.8-1.5-1.8c-1.1,0-1.5,0.9-1.5,1.9c0,0.9,0.3,2,1.5,2
			S150.1,163.9,150.1,162.9"/>
		<path class="st0" d="M54.3,150.4c-1.3,0-2.5-0.1-3.8-0.3c-2.2-0.3-2.7-1.6-3-3.6c-0.2-2.5-0.3-6.5-0.3-11.6c-3.2-1-6.3-2.4-9.2-4
			c0,6.9,0,12.5-0.4,15.5c-0.2,2.1-0.7,3.4-2.1,3.7c-0.9,0.2-1.8,0.3-2.7,0.3c-0.9,0-1.2,0.2-1.2,0.6c0,0.5,0.5,0.7,1.5,0.7
			c3,0,7.6-0.2,9.3-0.2c2,0,6.7,0.2,11.6,0.2c0.8,0,1.4-0.2,1.4-0.7C55.5,150.6,55.1,150.4,54.3,150.4"/>
		<path class="st0" d="M32.8,97.1c0.9,0,1.8,0.1,2.7,0.3c1.6,0.4,2.4,1.6,2.5,4.1c0.1,2.4,0.1,4.4,0.1,15.7v11.6
			c0.9,0.3,1.9,0.7,3,1.1c2.1,0.8,4.2,1.5,6.2,2v-14.7c0-11.3,0-13.3,0.1-15.7c0.1-2.6,0.7-3.9,2.7-4.2c0.7-0.1,1.5-0.2,2.2-0.2
			c0.7,0,1.2-0.1,1.2-0.7c0-0.4-0.6-0.6-1.6-0.6c-2.8,0-7.2,0.2-9,0.2c-2.1,0-6.8-0.2-9.6-0.2c-1.2,0-1.8,0.1-1.8,0.6
			C31.6,96.9,32,97.1,32.8,97.1"/>
		<path class="st0" d="M73.8,122.7l3.8,2.9c3.5,2.7,5.5,5,6.7,7.2c3.2-0.8,6.4-1.8,9.5-3.1c-1.3-5.5-5.1-10.2-12.9-16.1l-2.3-1.7
			c-6.8-5.1-8.7-7.9-8.7-11.6c0-4.9,3.7-8.3,9.7-8.3c5.3,0,7.7,2.4,8.9,4c1.2,1.5,2,3.4,2.1,5.3c0,1,0.2,1.5,0.8,1.5
			c0.7,0,0.9-0.6,0.9-2.4c0-6.3,0.3-8.7,0.3-9.7c0-0.6-0.4-0.8-1.1-1c-3.5-1-7.2-1.4-10.9-1.4c-11.4,0-18.9,6.4-18.9,15.3
			C61.7,110.1,64.8,115.8,73.8,122.7"/>
		<path class="st0" d="M85.6,138.1c0,0.2,0,0.3,0,0.5c0,4.3-3.6,9.2-11,9.2c-5.1,0-9.9-2.2-11.7-8.2c-0.1-0.4-0.2-0.8-0.3-1.2
			c-0.8-0.1-1.6-0.2-2.3-0.3c-0.1,2.1-0.3,5.6-0.3,8.8c0,1.8,0.2,2.2,1.6,2.8c3.8,1.5,7.9,2.3,12,2.1c4.6,0.2,9.1-1,13-3.3
			c4.3-2.6,7.1-7.1,7.6-12.1C91.3,137,88.5,137.6,85.6,138.1"/>
		<path class="st0" d="M95.6,74.2c1,0,2.1,0.1,3.1,0.3c2.6,0.7,3.3,2.4,3.4,6c0,0.5,0,1,0.1,1.5l0,0v43.8c3.5-1.9,6.9-4.1,10.1-6.6
			v-7.3h7.3c1.8-2.2,3.4-4.5,4.9-7h-12.2V83.7c0-1.3,0.1-2.3,0.1-3.3c0.2-3.7,0.8-5.5,2.9-6c0.8-0.2,1.5-0.3,2.3-0.3
			c1,0,1.4-0.2,1.4-0.9s-0.6-0.9-1.7-0.9c-3.1,0-8.1,0.3-10,0.3c-2.1,0-7.2-0.3-11.5-0.3c-1.1,0-1.7,0.2-1.7,0.9
			S94.7,74.2,95.6,74.2"/>
		<path class="st0" d="M153.2,149.8c-1.4,0-2.7-0.2-4.1-0.4c-2.4-0.4-2.9-2.7-3.1-5.7c-0.2-2.3-0.3-5.7-0.4-9.8V93.6
			c-2.2,6.7-5.7,12.9-10.1,18.3v24.7h0c-0.1,2.8-0.2,5.2-0.3,7c-0.3,3-0.7,5.4-2.3,5.8c-0.9,0.3-1.9,0.4-2.9,0.4
			c-1,0-1.3,0.3-1.3,0.8c0,0.7,0.6,1.1,1.7,1.1c3.1,0,8.1-0.3,9.9-0.3c2.2,0,7.2,0.3,12.4,0.3c1,0,1.6-0.3,1.6-1.1
			C154.5,150.1,154.1,149.8,153.2,149.8"/>
		<path class="st0" d="M119.7,149.8c-1.4,0-2.7-0.2-4.1-0.4c-2.4-0.4-2.9-2.7-3.1-5.7c-0.2-2.2-0.3-5.3-0.3-9v-5.2
			c-3.3,1.6-6.7,3.1-10.1,4.3v0.9h0c-0.1,3.7-0.2,6.7-0.3,8.9c-0.3,3-0.7,5.4-2.3,5.8c-0.9,0.3-1.9,0.4-2.9,0.4
			c-1,0-1.3,0.3-1.3,0.8c0,0.7,0.6,1.1,1.6,1.1c3.2,0,8.2-0.3,10-0.3c2.2,0,7.2,0.3,12.4,0.3c1,0,1.6-0.3,1.6-1.1
			C121,150.1,120.6,149.8,119.7,149.8"/>
		<path class="st1" d="M139.8,64.5l-13.9,19.6l7.5,0.1c-1.3,17.3-11.1,29.4-22.3,37.6l-0.1,0.1c-3.1,2.3-6.4,4.3-9.8,6.1
			c-28.6,14.8-60.4,2.8-60.4,2.8c34.3,18.5,73.9-4.5,73.9-4.5l0,0c29.1-16.4,30.8-42.2,30.8-42.2h7.1L139.8,64.5z"/>
		<path class="st1" d="M85.7,46.4c-1.8,23.5-22.3,41.1-45.9,39.3C16.3,83.8-1.3,63.3,0.5,39.8S22.9-1.3,46.4,0.5c0,0,0,0,0,0
			C69.9,2.4,87.5,22.9,85.7,46.4"/>
		<path class="st0" d="M43.1,0C19.3,0,0,19.3,0,43.1s19.3,43.1,43.1,43.1s43.1-19.3,43.1-43.1C86.2,19.3,66.9,0,43.1,0 M43.1,83.9
			c-22.5,0-40.8-18.2-40.8-40.8C2.3,29.1,9.6,16,21.5,8.5c-3.1,3.7-6.2,7.4-9.3,11.1c-2.3,2.7-4.1,5.8-5.4,9.1
			c0.7,0.4,1.3,0.8,1.7,1c0.3-0.8,0.6-1.6,1-2.5c1-2.2,2.3-4.2,3.8-6c3.6-4.2,7.1-8.5,10.7-12.7C26.2,6,29.3,4.3,32.8,4
			c4.7-0.7,9.4,1.3,12.2,5.1c1.7,2.1,2.6,4.7,2.7,7.4c0.2,3.6-1,7-3.4,9.7c-2.2,2.6-4.3,5.1-6.5,7.7v0l-0.8,1l0,0
			c-0.1,0.2-0.2,0.4-0.2,0.6c0,0.5,0.4,1,1,1c0,0,0,0,0,0c0.3,0,0.5-0.1,0.7-0.3h0l1.4-1.7l0,0c2.1-2.5,4.3-5.1,6.4-7.6
			c0.9-1.1,1.6-2.3,2.1-3.6c0.7-1.6,1.1-3.3,1.2-5.1c0.2-3.3-0.6-6.6-2.5-9.4c-1.4-2.2-3.4-4-5.8-5.2c-0.9-0.4-1.8-0.8-2.7-1.1
			c1.5-0.2,2.9-0.2,4.4-0.2c0.2,0,0.3,0,0.5,0c2,1.6,3.7,3.5,5,5.7c1.4,2.1,2.3,4.4,2.6,6.9c0.6,4.2-0.4,8.5-2.8,11.9
			c-0.1,0.1-0.2,0.3-0.3,0.5c-0.2,0.4,0,1,0.4,1.2c0.4,0.3,0.9,0.2,1.2-0.1c0,0,0-0.1,0.1-0.1c0.3-0.4,0.6-0.7,0.8-1.1
			c1.4-2.4,2.3-5.2,2.6-8c0.4-3.7-0.4-7.4-2.1-10.7c-1.2-2.2-2.8-4.2-4.6-6c0.9,0.1,1.8,0.2,2.7,0.3c0.4,0.5,1.1,1.5,1.2,1.6
			c1.3,1.5,2.3,3.3,3,5.1c0.3,0.7,0.8,1,1.3,0.8c0.5-0.3,0.8-0.9,0.5-1.5c0,0,0-0.1,0-0.1c-0.7-1.5-1.5-3-2.4-4.3c0,0-0.4-0.6-0.7-1
			c0.8,0.2,1.6,0.4,2.4,0.6c0,0.1,0.1,0.1,0.1,0.2h0c3.7,5.7,4.8,12.7,3.1,19.3c-0.5,2-1.3,4-2.3,5.8c1.6-1.7,3-3.3,4-4.5
			c0-0.1,0.1-0.2,0.1-0.3l0,0.1c0,0,0.1-0.5,0.3-1.2c0.7-3.1,0.9-6.2,0.5-9.4c-0.4-3.1-1.3-6.2-2.8-9c0,0,0,0,0-0.1
			c0.8,0.3,1.6,0.6,2.3,1C60.2,7,60.6,8.2,61,9.4c1,3.5,1.4,7.1,1,10.7c1.1-0.3,1.9-1.2,2.1-2.4c0.1-3.3-0.4-6.5-1.4-9.7
			c0,0-0.2-0.6-0.3-0.9c0.7,0.4,1.4,0.8,2,1.2c0.9,2.9,1.3,6,1.1,9c0.3-0.1,0.5-0.1,0.7-0.2c0.7-0.4,1.1-1,1.2-1.8
			c-0.1-1.8-0.4-3.7-0.8-5.5c18.4,13,22.8,38.4,9.8,56.8C68.8,77.5,56.4,83.9,43.1,83.9"/>
		<path class="st0" d="M31.6,55.9c0.5,0.7,1,1.4,1.5,2.1c3.6,0.4,7.2-0.3,10.4-2.1c0.2-0.8,0.4-1.7,0.5-2.6c-1.2,0.8-2.6,1.4-4,1.9
			C37.3,56.2,34.4,56.4,31.6,55.9"/>
		<path class="st0" d="M34.3,50.6c0.3-0.3,0.4-0.8,0.1-1.2c-0.2-0.3-0.6-0.5-1-0.5c-1.4-0.2-2.7-0.7-3.9-1.4
			c-1.6-0.8-2.8-2.2-3.5-3.8c-2-3.6-1.4-8,1.4-11c3.4-4.1,6.9-8.1,10.3-12.2c0.4-0.5,0.7-1,1-1.5c1-2.3-0.1-4.9-2.4-5.9
			C36,13,35.9,13,35.7,12.9c-1.8-0.6-3.9,0-5,1.5c-3.4,4.1-6.9,8.3-10.4,12.3c-1.3,1.5-2.4,3.2-3.2,5.1c0.4,1,0.7,2,1,3c0,0,0,0,0,0
			c0.4-1.9,1.3-3.7,2.4-5.2c2.3-2.9,4.7-5.7,7.1-8.5c1.5-1.8,3-3.6,4.5-5.3c0.3-0.4,0.8-0.8,1.2-1c1.4-0.5,2.9,0.3,3.3,1.6
			c0.1,0.4,0.2,0.8,0.1,1.2c-0.1,0.6-0.4,1.1-0.8,1.6c-3.6,4.2-7.1,8.5-10.7,12.7c-1.3,1.6-2.1,3.4-2.4,5.4
			c-1,6.4,3.4,12.4,9.8,13.4c0.1,0,0.3,0,0.4,0.1C33.6,50.9,34,50.8,34.3,50.6"/>
		<path class="st0" d="M39.3,51.7c-4.1,1.6-8.6,1-12.2-1.5c0.2,0.2,0.4,0.5,0.6,0.7c0.7,0.7,1.5,1.8,2.4,2.9
			c4.9,1.5,10.1,0.5,14.1-2.6c0-0.8,0-1.6-0.1-2.5C42.7,50.1,41.1,51.1,39.3,51.7"/>
		<path class="st0" d="M24.5,30.4c1.7-2.2,3.5-4.4,5.3-6.5c0.8-1,0.9-1.5,0.4-2s-1.1-0.2-1.9,0.7c-1.8,2.2-3.6,4.4-5.3,6.6
			c-1.9,2.3-3.1,5.1-3.4,8c0,0.3-0.1,0.6-0.1,0.9c0.2,0.4,0.3,0.7,0.4,1c0.6,1.2,1.2,2.3,1.9,3.3c-0.3-1.2-0.4-2.4-0.4-3.6
			C21.4,35.8,22.5,32.8,24.5,30.4"/>
		<path class="st0" d="M37.5,50.5c0.5-0.1,0.9-0.2,1.3-0.4c1.9-0.7,3.6-1.9,4.9-3.5c-0.2-0.9-0.2-1.8-0.3-2.7l-0.8,1
			c-1,1.3-2.2,2.3-3.6,3c-0.6,0.3-1.3,0.5-1.9,0.7c-0.5,0.1-0.7,0.6-0.6,1.1c0,0,0,0,0,0c0.1,0.5,0.5,0.8,0.9,0.7
			C37.4,50.6,37.4,50.5,37.5,50.5"/>
		<path class="st0" d="M37.1,7.3C37.1,7.3,37.1,7.3,37.1,7.3c0,0.1,0.1,0.1,0.1,0.2c0.2,0.4,0.5,0.6,0.9,0.7c2,0.9,3.7,2.4,4.8,4.3
			c1.9,3.5,1.6,7.8-0.9,10.9c-2,2.3-3.9,4.7-5.9,7c-1.6,1.9-3.3,3.8-4.9,5.8c-1.5,1.7-1.5,4.3,0,6c1.7,1.9,4.6,2.1,6.5,0.4
			c0.1-0.1,0.2-0.2,0.2-0.2c3-3.7,6.1-7.3,9.2-11c0.1-0.1,0.2-0.2,0.3-0.3c0.2-0.2,0.3-0.6,0.1-0.9c-0.2-0.5-0.7-0.7-1.1-0.6
			c-0.2,0.1-0.3,0.2-0.5,0.3c-0.2,0.2-0.4,0.3-0.6,0.5c-1.4,1.7-2.8,3.3-4.2,5c-1.5,1.8-3,3.5-4.4,5.3c-0.3,0.5-0.9,0.9-1.5,1
			c-1.1,0.2-2.2-0.2-2.8-1.2c-0.6-1-0.5-2.2,0.2-3.1c3.5-4.2,7-8.4,10.5-12.5c4.2-4.9,3.7-12.3-1.2-16.5c-1-0.9-2.2-1.6-3.5-2.1
			c-0.1-0.1-0.3-0.2-0.5-0.2l0,0l0,0c-0.5,0-0.9,0.4-0.9,0.9c0,0,0,0.1,0,0.1C37.1,7.2,37.1,7.2,37.1,7.3"/>
		<path class="st0" d="M40.1,62.8c-0.6,0.1-1.1,0.2-1.7,0.3c-0.7,0.1-1.3,0.2-1.9,0.2c1.3,1.5,2.8,2.4,4.1,0.4
			c0.1-0.2,0.3-0.5,0.4-0.7C40.7,62.8,40.4,62.7,40.1,62.8"/>
		<path class="st0" d="M56.9,17.1c0-1.5-0.1-3-0.5-4.5c-0.1-0.2-0.2-0.8-0.7-0.8c-0.9-0.1-1.3,0.5-1.1,1.5c0,0.1,0,0.2,0,0.3
			C55.7,19.7,54,26,50,30.7c-3.3,4.2-6.9,8.2-10.3,12.3c-0.8,0.9-1.7,1.6-2.9,2c-2.2,0.9-4.8,0.3-6.5-1.3c-1.8-1.7-2.4-4.4-1.5-6.7
			c0.4-1,0.3-1.5-0.4-1.8c-0.6-0.3-1.2,0.1-1.5,1c-1.6,3.9,0.2,8.4,4,10.3c3.2,1.7,7.2,1,9.6-1.7c4-4.7,8-9.4,11.9-14.2
			c1.3-1.6,2.3-3.4,2.9-5.3C56.4,22.6,56.9,19.9,56.9,17.1"/>
		<path class="st0" d="M34.2,59.8c0.3,0.5,0.6,0.9,0.8,1.3c0.1,0.2,0.3,0.4,0.4,0.7c2.3-0.1,4.6-0.5,6.7-1.3
			c0.3-0.7,0.6-1.6,0.8-2.4c-2.1,0.9-4.2,1.4-6.5,1.6C35.7,59.7,35,59.8,34.2,59.8"/>
		<path class="st0" d="M17.2,22.3c3.2-3.8,6.4-7.6,9.6-11.3c0.7-0.7,1.4-1.4,2.2-2c1.5-1,3.3-1.6,5.1-1.6c0.2,0,0.4,0,0.5-0.1
			c0.1,0,0.1,0,0.2,0c0.5,0,0.9-0.4,0.9-0.9c0-0.4-0.3-0.8-0.7-0.9l0,0l-0.1,0c0,0-0.1,0-0.1,0c0,0,0,0,0,0c-0.3,0-0.7-0.1-1-0.1
			c-3.5,0.1-6.7,1.8-8.9,4.6c-2.7,3.3-5.5,6.5-8.2,9.8l0,0c0,0-5.4,5.8-6.5,10c0,0,0,0.1,0,0.1c0,0.1,0,0.1-0.1,0.2h0
			c0.6,0,1.4-0.3,2.7-1.4c0.1-0.1,0.1-0.1,0.2-0.2c0.1-0.1,0.2-0.2,0.3-0.3c0.4-0.4,0.7-1,0.7-1.6c0-0.1,0-0.3-0.1-0.4
			c0-0.1-0.1-0.2-0.1-0.3c-0.3-0.9-0.5-2.4,0-2.4c0.1,0,0.5,0.7,0.9,1.8c0.4-0.5,0.7-1.1,1.2-1.6C16.4,23.3,16.8,22.8,17.2,22.3"/>
		<path class="st0" d="M35.2,36.8c-1,0.1-1.7,0.9-1.6,1.9c0.1,1,0.9,1.7,1.9,1.6c1-0.1,1.7-0.9,1.6-1.9c0,0,0,0,0,0
			C37,37.4,36.1,36.7,35.2,36.8C35.2,36.8,35.2,36.8,35.2,36.8"/>
		<path class="st0" d="M29.1,13.7c0.6-0.7,1.3-1.3,2-1.7c2.9-1.8,6.7-0.9,8.5,2c1.5,2.4,1.2,5.5-0.8,7.5c-2.9,3.4-5.8,6.9-8.8,10.4
			c-0.2,0.2-0.4,0.5-0.6,0.8c-0.3,0.4-0.3,1,0.1,1.3c0.1,0.1,0.3,0.2,0.4,0.2l0.1,0c0,0,0.1,0,0.1,0s0,0,0.1,0
			c0.2,0,0.4-0.1,0.5-0.2c0.3-0.2,0.6-0.4,0.7-0.7c0.3-0.4,0.6-0.8,0.9-1.2c2.7-3.1,5.4-6.2,8-9.3c0.7-0.9,1.3-2,1.7-3.1
			c0.9-2.4,0.4-5.2-1.2-7.2c-1.3-1.9-3.5-3.2-5.9-3.3c-2.7-0.3-5.4,0.9-7.1,3c-3.3,3.9-6.6,7.8-9.8,11.7c-0.9,1.1-1.8,2.3-2.5,3.5
			c0.3,0.7,0.5,1.5,0.8,2.3c0.7-1.4,1.6-2.6,2.5-3.8C22.2,21.7,25.6,17.7,29.1,13.7"/>
		<path class="st0" d="M32.1,20.9L32.1,20.9L32.1,20.9c0.2,0,0.3-0.1,0.4-0.2c0.9-0.9,1.7-1.8,2.4-2.7c0.4-0.4,0.4-1.1,0-1.5
			c-0.5-0.3-1.2-0.2-1.5,0.3c-0.9,1-1.7,2.1-2.4,3.3c0,0.5,0.4,0.9,0.9,0.9C31.9,21,32,21,32.1,20.9"/>
	</g>
</g>
</svg>
